<?xml version="1.0" standalone="no"?>
<!DOCTYPE svg PUBLIC "-//W3C//DTD SVG 1.1//EN" "http://www.w3.org/Graphics/SVG/1.1/DTD/svg11.dtd">

<svg width="135" height="50" viewBox="0 0 135 50" 
  xmlns="http://www.w3.org/2000/svg"
  xmlns:xlink="http://www.w3.org/1999/xlink">


<polyline points="0.0, 38.70699857336874 0.7988165680473372, 37.48735386384865 1.5976331360946745, 37.86971940231907 2.396449704142012, 39.84595478144906 3.195266272189349, 43.135481164149084 3.994082840236686, 40.369835832688224 4.792899408284024, 36.87813412782539 5.591715976331361, 42.56579848501031 6.390532544378698, 42.57785840451391 7.189349112426036, 34.69377522265971 7.988165680473372, 35.429016417554266 8.78698224852071, 23.288014828181545 9.585798816568047, 30.043769758406235 10.384615384615385, 32.509500722317 11.183431952662723, 33.959017730399 11.982248520710058, 35.69056320320116 12.781065088757396, 33.503159313450475 13.579881656804734, 32.253742068865435 14.378698224852071, 34.1350648093687 15.177514792899409, 42.39962717512352 15.976331360946745, 41.437530280539455 16.775147928994084, 41.21432200781297 17.57396449704142, 40.211302275904785 18.37278106508876, 39.57549676763676 19.171597633136095, 36.62394801567197 19.970414201183434, 33.583372817538134 20.76923076923077, 34.46756529441314 21.56804733727811, 28.26264417797149 22.366863905325445, 23.471251314159545 23.16568047337278, 23.058680020212478 23.964497041420117, 24.11039002670766 24.763313609467456, 25.25364962738755 25.562130177514792, 24.54102309018477 26.36094674556213, 26.88165133204895 27.159763313609467, 24.713293339390287 27.958579881656807, 22.206218965843412 28.757396449704142, 21.313616061378475 29.55621301775148, 18.801433153557646 30.355029585798817, 20.215812515442476 31.153846153846157, 25.08911626405808 31.95266272189349, 25.809963934648223 32.751479289940825, 34.94633050361706 33.55029585798817, 39.936277539262136 34.349112426035504, 35.086730549845804 35.14792899408284, 30.756446206251532 35.94674556213018, 31.088377327970512 36.74556213017752, 32.625041040112656 37.54437869822485, 31.757291109460834 38.34319526627219, 31.306395095895873 39.142011834319526, 37.49818370043038 39.94082840236687, 36.733919113852444 40.7396449704142, 40.542687839398276 41.53846153846154, 39.57297043813728 42.337278106508876, 38.99409740100598 43.13609467455622, 37.9725607173516 43.93491124260355, 37.540548901205476 44.73372781065089, 35.79048141502895 45.532544378698226, 38.17154746744557 46.33136094674556, 39.046699969726454 47.1301775147929, 42.97350847065203 47.928994082840234, 45.79090595427149 48.72781065088758, 46.99554438761663 49.52662721893491, 50.0 50.32544378698225, 48.70241950414889 51.124260355029584, 49.134459136094534 51.92307692307693, 46.598656361540584 52.72189349112426, 45.649807678871454 53.5207100591716, 45.651329147578124 54.319526627218934, 41.98080798969777 55.11834319526627, 32.66813291212918 55.91715976331361, 30.01349574652405 56.71597633136094, 30.82959329595218 57.514792899408285, 28.35660964825344 58.31360946745562, 27.589374365488865 59.11242603550296, 29.30677332097921 59.91124260355029, 31.62661222175988 60.710059171597635, 31.349308841156237 61.50887573964497, 28.59923835746152 62.307692307692314, 22.868140054113535 63.10650887573964, 34.49080409303358 63.90532544378698, 33.87955184617961 64.70414201183432, 28.940261542352708 65.50295857988165, 34.46179704241416 66.30177514792899, 35.52782223473914 67.10059171597634, 36.98898921834356 67.89940828402366, 40.703119845446864 68.69822485207101, 38.31653660485676 69.49704142011834, 36.47090333217285 70.29585798816568, 31.126137438405976 71.09467455621302, 28.47762197117384 71.89349112426036, 28.94962377639007 72.6923076923077, 27.00310222594466 73.49112426035504, 28.24650665425726 74.28994082840237, 27.391410611744572 75.0887573964497, 29.597538489094532 75.88757396449704, 28.884951595354835 76.68639053254438, 29.563014220115942 77.48520710059172, 30.11461454510088 78.28402366863905, 28.971781846967342 79.0828402366864, 30.590332495532707 79.88165680473374, 29.530966114705404 80.68047337278107, 29.715464947565785 81.4792899408284, 30.391092500233054 82.27810650887574, 29.772730534150494 83.07692307692308, 29.34639143196201 83.87573964497041, 29.074619468213026 84.67455621301775, 29.41544899013926 85.4733727810651, 29.328035607868575 86.27218934911244, 30.801259148997662 87.07100591715975, 30.433766527574235 87.8698224852071, 29.41963041890573 88.66863905325444, 30.17865901005757 89.46745562130178, 29.958420285854043 90.26627218934911, 29.713361855570874 91.06508875739645, 36.195109034453374 91.8639053254438, 37.24767673207726 92.66272189349112, 37.68844378769757 93.46153846153845, 35.375932999464254 94.2603550295858, 35.387982471536 95.05917159763314, 35.40590569648177 95.85798816568047, 35.97215124244269 96.65680473372781, 35.00330735142178 97.45562130177515, 34.95454190557723 98.2544378698225, 37.20226276948409 99.05325443786982, 36.14945322148953 99.85207100591715, 35.548338405658065 100.6508875739645, 35.0639791303881 101.44970414201183, 32.506924442497635 102.24852071005917, 30.713196982520707 103.04733727810651, 31.628037316411916 103.84615384615385, 33.401776182684465 104.64497041420118, 32.27019291038358 105.44378698224853, 28.013833012097443 106.24260355029585, 28.680524287365444 107.0414201183432, 30.664343724539144 107.84023668639053, 27.521928493886925 108.63905325443787, 25.878013105371117 109.43786982248521, 27.94545917857154 110.23668639053254, 29.776231987803452 111.03550295857988, 28.082406456834004 111.83431952662723, 28.31654434308146 112.63313609467457, 26.17585108584216 113.43195266272188, 26.249602833301594 114.23076923076923, 25.94602986516057 115.02958579881657, 21.931961248386866 115.82840236686391, 12.90062333685252 116.62721893491124, 11.121117153360712 117.42603550295858, 3.7097237941363144 118.22485207100593, 3.0299950682838706 119.02366863905324, 3.1410375043502117 119.82248520710058, 1.9986932733911504 120.62130177514793, 1.721256851993042 121.42011834319527, 0.0 122.2189349112426, 0.24434473265539866 123.01775147928994, 5.930640351816359 123.81656804733728, 7.191157174197943 124.61538461538463, 6.201992468746403 125.41420118343194, 7.145471023026767 126.21301775147928, 6.611308360552261 127.01183431952663, 3.259369891967448 127.81065088757396, 9.564166602852648 128.60946745562129, 11.149916560832807 129.40828402366864, 10.143631076378753 130.20710059171597, 10.140659811680099 131.0059171597633, 12.465820689248195 131.80473372781066, 11.20100764360642 132.60355029585799, 9.716224703941597 133.40236686390534, 7.9988620853229015 134.20118343195267, 8.592054167563786" fill="none" stroke="#57bd0f" stroke-width="1.25"/>

</svg>